<?xml version="1.0" encoding="utf-8"?>
<!-- Generator: Adobe Illustrator 21.0.1, SVG Export Plug-In . SVG Version: 6.00 Build 0)  -->
<svg version="1.1" id="Calque_1" xmlns="http://www.w3.org/2000/svg" xmlns:xlink="http://www.w3.org/1999/xlink" x="0px" y="0px"
	 viewBox="0 0 432 432" style="enable-background:new 0 0 432 432;" xml:space="preserve">
<style type="text/css">
	.st0{fill:#C77B32;}
	.st1{fill:#534741;}
	.st2{fill:#0071BC;}
	.st3{fill:#29ABE2;}
	.st4{fill:#65C8D0;}
	.st5{fill:#838BC5;}
	.st6{fill:#C96087;}
	.st7{fill:#BA9BC9;}
	.st8{fill:#736357;}
	.st9{fill:#FFB3CC;}
	.st10{fill:#231F20;}
</style>
<g>
	<g>
		<path d="M152.9,221.4c-1.1-0.2-2.2-0.4-3.3-0.6c-1.1-0.2-2.1-0.7-3-1.4c-1.6-1.2-2.4-3.4-1.8-5.3c0.7-2,2.6-2.8,4.5-1.8
			c1.8,0.9,2.9,2.4,3.8,4.2c0.3,0.6,0.6,1.3,0.9,2c0.8-0.1,1.6-0.1,2.3-0.2c1.8-0.1,3.5-0.3,5.3-0.4c2,0,3.8,0.6,5.3,2
			c1,0.9,1.6,2,2.1,3.2c0.9,2.5,1.1,5.1,1.2,7.7c0,2,0.1,4,0.2,6c0.2,2.3,0.4,4.6,0.6,6.8c0,0.3,0.1,0.5,0.2,1
			c0.4-0.4,0.7-0.7,0.8-1c0.6-1.2,1.2-2.4,1.7-3.7c1.6-3.8,2.8-7.8,4-11.8c0.2-0.7,0.2-1.5,0.1-2.2c-0.5-4.2-0.3-8.3,1.2-12.3
			c0.8-2.1,2.1-3.9,4-5.1c1.8-1.1,3.7-1.3,5.6-0.5c2.6,1,4.5,2.8,5.7,5.4c1.6,3.5,0.2,7.3-3.3,9c-1.1,0.5-2.3,0.8-3.5,0.9
			c-0.8,0.1-1.6,0.2-2.5,0.3c0,0.5,0,0.9,0,1.3c0.3,2.8,0.8,5.5,1.7,8.1c0.8,2.4,1.8,4.8,3.3,7c0.5,0.7,1,1.3,1.5,1.9
			c0.7,0.9,1.6,1,2.7,0.6c1.2-0.5,2.2-1.4,3.1-2.4c1.7-1.9,3-4.1,4.2-6.3c0.7-1.3,1.4-2.7,2.2-4c0.4-0.7,0.6-1.4,0.6-2.2
			c-0.1-2.4,0.1-4.8,0.6-7.1c0.6-3,1.7-5.7,3.7-8.1c0.9-1,1.8-2,3.1-2.6c3-1.6,6-1.2,8.6,1.1c1.5,1.3,2.5,2.9,3.3,4.7
			c0.6,1.5,0.7,2.9,0.5,4.5c0,0.2,0,0.3-0.1,0.5c-0.2,0.6-0.8,1-1.3,1c-0.6,0-1.1-0.5-1.2-1.2c0-0.1,0-0.2,0-0.3
			c0.2-2-0.8-3.6-2.1-5.1c-0.4-0.5-0.8-0.9-1.3-1.2c-1.2-0.8-2.3-0.7-3.3,0.3c-0.5,0.6-1,1.3-1.3,2c-0.8,1.9-1.3,3.8-1.5,5.8
			c-0.3,2.3-0.4,4.7-0.2,7c0.2,2.8,0.8,5.5,2.1,8c0.1,0.1,0.1,0.3,0.2,0.4c0.5,0.7,0.8,0.9,1.6,0.6c1.3-0.5,2.4-1.3,3.3-2.3
			c2.2-2.3,4.2-4.7,6.1-7.3c0.2-0.3,0.5-0.6,0.7-0.9c0.7-1.1,2.9-1.4,4-0.2c0.5,0.6,1,1.3,1.2,2.1c0.2,1.1,0.5,2.3,0.6,3.4
			c0.3,2.9,0.5,5.9,0.7,8.8c0.1,0.7,0.2,1.5,0.3,2.4c0.3-0.3,0.4-0.4,0.5-0.6c0.8-1.6,1.7-3.1,2.4-4.7c1.5-3.3,2.9-6.6,4.4-9.9
			c0.5-1.1,0.9-2.2,1.4-3.3c0.3-0.8,0.4-1.6,0.3-2.4c-0.2-2.9-0.4-5.8,0-8.7c0.1-0.6,0.3-1.1,0.5-1.7c0.4-0.9,1.1-1.4,2.1-1.5
			c1,0,1.8,0.4,2.2,1.3c0.4,1,0.8,2.1,1,3.1c0.5,2.6,0.8,5.2,1.2,7.8c0,0.2,0,0.3,0.1,0.5c0.4-0.1,0.4-0.4,0.5-0.6
			c1-2.5,2.2-5,3.6-7.3c0.3-0.5,0.7-1,1.1-1.4c1.4-1.4,3.4-1.5,5-0.2c1.3,1,2.1,2.4,2.8,3.9c1.1,2.5,1.6,5.2,2.2,7.8
			c0,0.2,0.1,0.3,0.3,0.5c0.2-0.6,0.4-1.2,0.6-1.8c1.3-4,3.2-7.7,5.5-11.3c1.3-2,2.7-4,4.3-5.8c0.5-0.6,1-1.1,1.6-1.6
			c1.7-1.4,3.8-1.2,5.4,0.4c1,1,1.5,2.3,1.8,3.6c0.6,2.2,0.8,4.3,0.8,6.6c0,5.6-0.2,11.1-0.5,16.6c-0.1,1.9-0.2,3.9-0.2,5.8
			c0,0.8,0.1,1.7,0.3,2.5c0.4,1.7,1.7,2.3,3.3,1.5c1.1-0.5,2-1.4,2.8-2.3c1.9-2.1,3.3-4.5,4.4-7.2c0.8-1.9,1.4-3.9,2.1-5.8
			c0.2-0.5,0.1-0.9-0.3-1.4c-1.2-1.6-2.4-3.3-3.5-5c-1.4-2.2-2.4-4.6-3-7.2c-0.4-1.8-0.3-3.7,0.6-5.4c1.5-2.8,4.7-3.1,6.7-0.6
			c0.6,0.8,1.2,1.7,1.5,2.6c1.2,3,1.7,6.2,1.6,9.4c0,0.5,0.1,0.9,0.4,1.3c1.3,1.4,2.7,2.9,3.9,4.4c1.6,1.9,3.1,4,4.6,5.9
			c0.2,0.3,0.4,0.5,0.6,0.9c0.3-0.2,0.6-0.3,0.8-0.4c2.8-1.4,5.6-2.7,8.4-4.1c0.4-0.2,0.8-0.3,1.2-0.4c0.7-0.2,1.3,0.1,1.5,0.6
			c0.2,0.5,0,1-0.5,1.4c-0.5,0.3-1.1,0.6-1.7,0.8c-2.5,1.3-5.1,2.6-7.6,3.8c-0.2,0.1-0.4,0.3-0.7,0.4c0.2,0.4,0.4,0.8,0.6,1.1
			c1.3,2,2.2,4.2,2.9,6.5c0.8,2.5,1.3,5,1,7.6c-0.2,2.4-1.1,4.5-3,6.2c-3.1,2.9-8.7,2.7-11.4-1c-1.5-2.1-2.1-4.4-1.9-6.9
			c0.3-3.8,1.8-7.1,4.1-10.2c0.2-0.3,0.4-0.5,0.6-0.9c-1.7-2.7-3.6-5.2-5.6-7.8c-0.1,0.3-0.2,0.5-0.3,0.7c-1,3.3-2.3,6.3-4.3,9.1
			c-1.4,2-3,3.9-4.9,5.5c-3.5,2.9-8.5,1.7-10.5-2.4c-1-2.1-1.5-4.3-1.7-6.5c-0.4-4.1-0.1-8.1,0.1-12.2c0.2-4.1,0.4-8.2,0.2-12.3
			c0-0.4-0.1-0.7-0.1-1.2c-0.3,0.2-0.6,0.4-0.8,0.5c-1.6,1.3-2.9,2.8-4.1,4.4c-2,2.8-3.5,5.8-4.6,8.9c-1.1,2.9-1.8,5.9-2.3,9
			c-0.2,1.1,0,2.3-0.1,3.4c-0.1,1.1-0.1,2.2-0.3,3.3c-0.2,1.3-0.9,2-1.9,2.1c-1,0.1-1.9-0.4-2.4-1.6c-0.5-1.2-0.9-2.4-1.2-3.6
			c-0.6-2.8-1-5.7-1.5-8.6c-0.5-2.9-1.1-5.8-1.7-8.7c-0.1-0.4-0.3-0.8-0.4-1.4c-0.3,0.2-0.4,0.4-0.6,0.5c-1.4,1.5-2.3,3.2-3.1,5
			c-0.7,1.6-1.2,3.2-1.8,4.7c-0.4,1-0.4,2-0.3,3c0.3,2.6,0.4,5.3,0.2,7.9c-0.1,0.9-0.3,1.9-0.7,2.7c-0.7,1.3-2.2,1.6-3.4,0.6
			c-0.9-0.8-1.4-1.9-1.7-3c-0.6-1.8-0.9-3.6-1.2-5.4c-0.1-1-0.3-1.9-0.4-2.9c0-0.3-0.1-0.5-0.2-1c-0.2,0.4-0.3,0.6-0.4,0.8
			c-1,2.4-2,4.9-3.1,7.3c-1,2.3-2,4.7-3.1,6.9c-0.5,1-1.1,1.9-2,2.5c-1.2,0.8-2.7,0.9-3.9-0.1c-0.6-0.5-1.2-1.2-1.6-1.9
			c-1.4-2.3-2.2-4.8-2.5-7.4c-0.2-1.7-0.5-3.4-0.3-5.1c0-0.1,0-0.3-0.1-0.6c-0.4,0.4-0.7,0.7-1,1c-1.4,1.8-2.8,3.6-4.2,5.3
			c-1.2,1.4-2.6,2.7-4.4,3.3c-1.8,0.7-3.5,0.4-5.1-0.6c-1.4-0.9-2.5-2.2-3.3-3.6c-0.9-1.5-1.5-3-1.9-4.7c0-0.2-0.1-0.4-0.2-0.7
			c-0.2,0.2-0.3,0.4-0.4,0.6c-0.7,1.2-1.3,2.4-2,3.6c-1,1.9-2.2,3.6-3.5,5.3c-0.9,1.2-2.1,2.3-3.4,3.1c-2.5,1.6-5,1.6-7.6,0.1
			c-2.5-1.5-4.5-3.6-6-6.1c-1.1-1.9-1.9-3.9-2.5-6c-0.1-0.2-0.1-0.4-0.2-0.6c-0.4,0.1-0.4,0.5-0.5,0.7c-0.5,1.6-1,3.1-1.5,4.7
			c-0.7,2.1-1.3,4.3-2.4,6.3c-0.5,1-1.1,2-1.9,2.8c-1.4,1.5-3.5,1.6-5.1,0.5c-1.6-1.1-2.5-2.6-3.3-4.3c-1-2.3-1.5-4.7-1.5-7.2
			c-0.1-2.8-0.2-5.6-0.3-8.4c0-0.7-0.1-1.5-0.3-2.2c-0.5-2.6-1.8-3.9-4.4-4.4c-0.8-0.1-1.6-0.2-2.4-0.3c-0.2,0-0.5,0-0.8,0
			c0.1,0.6,0.2,1.2,0.3,1.8c0.9,5.2,0.5,10.3-0.8,15.3c-0.5,1.7-1.1,3.4-1.9,5c-0.6,1.2-1.4,2.3-2.4,3.3c-3,3.1-6.7,2.8-9.5,0.3
			c-1.9-1.6-3.1-3.6-4.1-5.8c-0.8-1.8-1.6-3.6-2-5.6c0-0.2-0.1-0.4-0.2-0.6c0-0.1-0.1-0.1-0.2-0.3c-0.1,0.2-0.3,0.4-0.4,0.6
			c-0.6,1.3-1.2,2.6-1.9,3.9c-1,2-2.1,3.9-3.7,5.5c-2.6,2.6-5.6,3.2-9.2,1.1c-2.4-1.4-3.9-3.6-5.1-6c-2.5-5-3.4-10.3-2.9-15.8
			c0.3-3.4,1.3-6.6,3.2-9.5c1.2-1.7,2.7-3.1,4.7-3.9c2.1-0.8,4.1-0.9,6.2-0.2c2.2,0.7,4.1,1.9,5.6,3.6c0.4,0.4,0.6,0.9,1,1.3
			c0.1,0.1,0.2,0.2,0.4,0.4c0-0.5,0-0.9,0-1.2c0-3.6,0.2-7.1,0.9-10.6c0.3-1.6,0.6-3.3,1.4-4.8c0.2-0.4,0.4-0.8,0.7-1.1
			c1-1.2,2.6-0.9,3.2,0.6c0.5,1.3,0.6,2.6,0.7,3.9c0.1,2.6,0.3,5.2,0.3,7.8c0,3.9,0.2,7.8,0.5,11.8c0.3,4.2,0.9,8.4,1.6,12.6
			c0.4,2.5,0.9,5,1.8,7.4c0.4,1,0.8,1.9,1.4,2.8c0.7,1.1,1.7,1.3,2.9,0.8c1.4-0.6,2.3-1.7,3-3c1.5-2.4,2.3-5.1,2.8-7.9
			c0.6-3.7,0.7-7.4,0.2-11.1c0-0.3-0.1-0.7-0.2-1C153.1,222.4,153,221.9,152.9,221.4z M117.3,225.5c0.1,1.1,0.1,2.3,0.2,3.4
			c0.3,3.5,1,6.9,2.4,10.2c0.7,1.5,1.5,2.7,2.8,3.7c0.6,0.4,1.2,0.5,1.9,0.2c0.5-0.3,1.1-0.6,1.5-1c0.9-1,1.8-2,2.6-3
			c1.8-2.5,3.1-5.4,4.3-8.2c0.2-0.4,0.2-1,0.1-1.5c-0.1-1.3-0.3-2.7-0.4-4c-0.1-0.5-0.1-0.9-0.3-1.4c-0.6-1.8-1.4-3.6-2.4-5.2
			c-1.2-1.9-2.9-3.2-5.1-3.9c-2.4-0.8-4.2,0.2-5.5,1.8c-0.6,0.8-1.1,1.8-1.4,2.8C117.6,221.5,117.3,223.5,117.3,225.5z M305,240.1
			c-0.2,0.2-0.3,0.3-0.4,0.4c-1.1,1.7-2.1,3.5-2.5,5.5c-0.3,1.6-0.4,3.2,0.1,4.8c0.4,1.2,1.2,2,2.3,2.4c1.2,0.4,2.4-0.1,2.9-1.3
			c0.1-0.3,0.2-0.7,0.3-1c0.2-1.2,0.2-2.4-0.1-3.6c-0.4-2.1-1.1-4.1-2.1-6C305.4,240.9,305.2,240.5,305,240.1z M184.9,220.6
			c1.4,0.3,2.6,0.2,3.9-0.1c0.6-0.1,1.2-0.3,1.7-0.6c1.5-0.8,2.4-2.4,2-3.9c-0.3-1.4-1-2.5-2.1-3.3c-0.6-0.5-1.4-0.8-2.2-0.8
			c-0.8,0-1.4,0.2-1.7,0.9c-0.3,0.5-0.5,1-0.7,1.5c-0.3,1.5-0.6,3-0.8,4.5C185,219.4,185,220,184.9,220.6z M296.9,218.1
			c0.1,0,0.1-0.1,0.2-0.1c0-0.1,0-0.2,0-0.3c-0.1-1.6-0.4-3.1-1-4.5c-0.3-0.8-0.8-1.5-1.2-2.2c-0.2-0.4-0.6-0.7-1.1-0.8
			c-0.2,0.9-0.2,1.7,0.1,2.4c0.4,1.1,0.9,2.2,1.5,3.2C295.9,216.6,296.4,217.3,296.9,218.1z M151.6,218.4c-0.8-1.5-1.7-2.6-3-3.5
			c-0.1-0.1-0.2-0.1-0.3-0.1c-0.5-0.2-0.8-0.1-0.9,0.5c-0.2,0.8,0.2,1.4,0.7,1.8C149.1,217.8,150.2,218.3,151.6,218.4z"/>
		<g>
			<path d="M224.4,160.5c-0.7,1.3-1.3,2.5-2,3.8c-1,1.8-2.1,3.5-3.6,4.9c-1.4,1.3-3,2.3-4.8,2.8c-2.6,0.8-4.8-0.1-6.6-2
				c-1.9-2-3-4.5-3.9-7.1c-1-3.1-1.3-6.4-1.3-9.6c0-1.9,0.1-3.8,0.4-5.6c0.2-1.5,0.6-2.9,1.5-4.1c0.4-0.6,1-0.9,1.7-0.9
				c0.7-0.1,1.3,0.2,1.8,0.8c0.4,0.6,0.6,1.2,0.7,1.9c0.1,2.1,0.2,4.2,0.2,6.3c0.1,3,0.3,6,0.8,9c0.2,1.5,0.5,3,0.9,4.5
				c0.2,0.8,0.5,1.5,0.8,2.3c0.7,1.5,1.7,1.9,3.3,1.4c1.6-0.5,2.9-1.4,4-2.6c1.9-1.9,3.2-4.2,4.4-6.6c0.8-1.6,1.5-3.2,2.1-4.8
				c0.4-0.9,0.5-2,0.8-3c0.1-0.5,0.2-1,0.4-1.4c0.6-1.6,2.6-2,3.9-0.8c0.6,0.6,0.9,1.3,1.1,2.1c0.5,2,0.7,4.1,0.7,6.2
				c0.1,3.1,0.1,6.2,0.1,9.3c0,2.1-0.2,4.1-0.4,6.2c-0.2,2-0.4,4.1-0.7,6.1c-0.4,3.3-1.4,6.4-2.9,9.3c-1.6,3.1-3.9,5.6-7,7.3
				c-1.6,0.9-3.3,1.3-5.2,1.4c-2.4,0-4.5-0.9-6.2-2.6c-1-0.9-1.7-2-2.2-3.3c-0.5-1.4-1.1-2.8-1.7-4.2c-0.2-0.5-0.3-0.9-0.4-1.4
				c0-0.4,0-0.8,0.1-1.1c0.2-0.5,0.7-0.7,1.1-0.6c0.5,0.1,0.7,0.3,0.9,0.8c0.6,2,1.5,3.8,2.6,5.5c0.9,1.3,2.1,2.2,3.6,2.7
				c1.8,0.5,3.4,0.1,4.9-1.1c1.6-1.3,2.7-2.9,3.6-4.7c1.3-2.8,1.9-5.7,2.1-8.7c0.2-3.8,0.4-7.6,0.5-11.4c0.1-2.1,0-4.1,0.1-6.2
				c0-0.2,0-0.3,0-0.5C224.5,160.6,224.4,160.5,224.4,160.5z"/>
			<path d="M296.6,155c-0.1,0.8-0.2,1.4-0.3,2.1c-1,5.2-3.2,9.8-6.7,13.7c-0.6,0.7-1.3,1.3-2,1.9c-0.1,0.1-0.3,0.2-0.4,0.3
				c-0.7,0.3-1.4-0.2-1.3-0.9c0-0.3,0.2-0.6,0.4-0.8c0.7-1,1.5-2,2.3-3c3-3.8,4.8-8,5.5-12.8c0-0.2,0.1-0.5,0.1-0.8
				c-0.5-0.2-0.9-0.4-1.4-0.5c-1.7-0.6-3.1-1.5-4.2-3c-1.3-1.7-1.8-4-0.7-6c1.1-1.9,3-2.4,4.6-1.4c1.5,0.9,2.4,2.2,3,3.7
				c0.6,1.4,1,2.9,1.1,4.4c0,0.2,0.1,0.4,0.1,0.6c1.6,0.2,3.2,0.2,4.8,0.1c1.2,0,2.5-0.1,3.7,0.1c2.6,0.3,4.2,1.7,5.2,4.1
				c0.5,1.3,0.8,2.6,0.9,4c0.1,2.5,0,5.1-0.1,7.6c-0.2,3.4-0.3,6.7-0.4,10.1c-0.1,2-0.1,4-0.1,6c0,2.2,0.2,4.4,0.3,6.6
				c0,0.5,0.2,1,0.3,1.5c0.1,0.3,0.3,0.6,0.4,0.9c0.6-0.2,0.9-0.5,1.2-0.9c0.6-1.1,1.3-2.2,1.8-3.4c1.4-3.2,2.5-6.5,3.3-9.9
				c0.1-0.5,0.2-0.9,0.3-1.4c0.2-0.6,0.7-0.9,1.2-0.8c0.5,0.2,0.7,0.7,0.6,1.3c-0.5,2.9-1.3,5.7-2.1,8.4c-0.8,2.7-1.8,5.3-3.3,7.8
				c-0.9,1.6-2.4,2.3-4.2,2.2c-1.1-0.1-1.9-0.6-2.7-1.4c-0.9-1-1.6-2.2-2.2-3.4c-0.9-1.9-1.4-3.9-1.7-6c-0.4-3-0.7-6-0.6-9
				c0.2-4.4,0.4-8.8,0.7-13.2c0.1-2.1,0.1-4.2-0.1-6.3c-0.1-1-0.6-1.7-1.5-1.9c-0.6-0.2-1.2-0.3-1.9-0.4
				C299.3,155.3,298,155.1,296.6,155z M294.1,151.8c0-0.3,0.1-0.4,0.1-0.6c-0.2-1.6-0.7-3.1-1.6-4.4c-0.3-0.4-0.7-0.8-1.1-1.1
				c-0.6-0.4-1-0.3-1.4,0.3c-0.3,0.6-0.5,1.3-0.3,2C290.5,150.2,292.1,151.1,294.1,151.8z"/>
			<path d="M259.8,159.7c0-4.8,0.1-8.1,0.5-11.3c0.1-0.9,0.3-1.9,0.8-2.7c0.4-0.9,1.1-1.3,2.1-1.4c1,0,1.7,0.5,2.1,1.3
				c0.2,0.4,0.4,0.9,0.5,1.4c0.3,1.9,0.6,3.9,0.8,5.8c0.3,3.7,0.4,7.3,0.6,11c0.2,3.6,0.3,7.2,0.6,10.8c0.2,3,0.6,5.9,1,8.9
				c0.4,2.3,0.8,4.6,1.6,6.8c0.2,0.5,0.4,0.9,0.6,1.3c0.6,1.1,1.3,1.2,2.2,0.4c1.1-0.9,1.9-2,2.5-3.2c1.4-2.6,2.2-5.5,2.8-8.4
				c1-4.3,1.4-8.7,1.8-13.1c0.3-2.9,0.6-5.9,0.8-8.8c0.2-2.3,0.2-4.6,0.3-7c0.1-1.7,0.2-3.4,0.4-5c0-0.3,0.2-0.6,0.4-0.9
				c0.6-0.6,1.6-0.3,1.7,0.5c0,0.2,0,0.4,0,0.7c-0.1,3.3-0.2,6.5-0.3,9.8c-0.2,4.1-0.4,8.2-0.7,12.2c-0.2,2.8-0.6,5.7-1,8.5
				c-0.4,2.6-1,5.3-1.6,7.9c-0.5,2.3-1.3,4.5-2.5,6.5c-0.7,1.2-1.6,2.4-2.8,3.2c-2.2,1.5-5.1,1.3-7-0.7c-0.4-0.4-0.8-0.9-1.1-1.4
				c-2.3-3.4-3.8-7.2-4.8-11.2c-1-4.4-1.7-8.8-1.9-13.3C260.2,164.9,259.9,161.5,259.8,159.7z"/>
			<path d="M257.1,170.2c-0.1,1.9-0.2,3.8-0.3,5.6c-0.2,3.6-0.8,7.1-1.6,10.6c-0.5,2.1-1.4,4.1-2.7,5.9c-1.3,1.7-3,2.6-5.2,2.3
				c-0.9-0.1-1.8-0.5-2.4-1.1c-2.7-2.5-4.8-5.4-6-8.9c-1.5-4.2-2.3-8.5-2.5-13c-0.2-5.2,0.4-10.4,1.7-15.4c0.4-1.5,0.9-3,1.5-4.4
				c0.9-2.1,2-4,3.9-5.4c1.1-0.8,2.3-1.3,3.7-0.9c0.3,0.1,0.5,0.2,0.7,0.3c1.7,1.4,3.4,2.8,4.5,4.7c0.8,1.4,1.6,2.7,2.2,4.2
				c0.9,2.1,1.5,4.2,1.8,6.5C256.7,164.2,257.1,167.2,257.1,170.2z M248.3,149.5c-0.5,0-0.7,0.4-0.9,0.7c-1.3,1.7-2,3.7-2.5,5.7
				c-1,3.7-1.6,7.5-1.9,11.3c-0.3,4.1-0.3,8.3,0.2,12.4c0.3,2.6,0.8,5.1,1.6,7.5c0.5,1.4,1.1,2.8,2.1,3.9c0.7,0.8,1.3,0.9,2.1,0.1
				c0.1-0.1,0.2-0.2,0.3-0.3c1.1-1.1,1.7-2.4,2.2-3.8c0.7-2.3,1.4-4.6,1.7-6.9c0.3-2.3,0.6-4.7,0.8-7c0.2-3.1,0-6.2-0.3-9.3
				c-0.2-2.6-0.6-5.1-1.5-7.5c-0.6-1.5-1.3-3-2-4.5C249.6,151,249.1,150.1,248.3,149.5z"/>
			<path d="M141.3,149.4c0.2,1,0.4,1.8,0.5,2.7c0.4,3,0.5,5.9,0.6,8.9c0,2.9,0.1,5.8,0.2,8.7c0.1,3.3,0.2,6.5,0.2,9.8
				c0,0.9,0,0.9,0.9,0.9c1.7,0,3.5,0,5.2,0c0.2,0,0.5,0,0.7,0c0.5,0.1,0.8,0.5,0.9,1c0,0.5-0.2,0.9-0.7,1.1
				c-0.3,0.1-0.5,0.1-0.8,0.2c-1.8,0.2-3.6,0.4-5.4,0.6c-0.6,0.1-0.7,0.1-0.8,0.7c-0.1,2.4-0.1,4.9-0.1,7.3c0,0.1,0,0.2,0.1,0.4
				c0.4,0,0.8,0,1.2,0c2.7,0,5.5-0.1,8.2-0.1c0.2,0,0.5,0,0.7,0c0.6,0,0.8,0.3,1,0.8c0.1,0.5,0,1-0.5,1.2c-0.3,0.2-0.7,0.3-1.1,0.3
				c-1.8,0.2-3.6,0.4-5.4,0.6c-1.2,0.1-2.4,0.3-3.6,0.3c-0.5,0-1.1,0-1.6-0.1c-1.8-0.2-2.9-1.3-3.4-2.9c-0.3-0.8-0.5-1.7-0.6-2.5
				c-0.7-3.8-1.2-7.6-1.5-11.5c-0.2-3.8-0.6-7.5-0.7-11.3c-0.1-4.5,0-9.1,0.1-13.6c0-1,0.2-1.9,0.3-2.9c0.1-1.1,0.6-1.9,1.2-2.8
				c0.4-0.6,1.1-0.9,1.8-0.9c1-0.1,2.1-0.2,3.1-0.2c3.6-0.2,7.2-0.4,10.8-0.5c0.8,0,1.2,0.2,1.3,0.8c0.2,0.6-0.1,1.2-0.8,1.5
				c-0.6,0.2-1.3,0.4-2,0.5c-2.2,0.3-4.4,0.7-6.6,1c-0.8,0.1-1.5,0.1-2.3,0.1C142,149.3,141.7,149.3,141.3,149.4z"/>
			<path d="M168.4,166.6c-0.5,2-0.2,23.3,0.4,24.7c0.6-0.2,1-0.6,1.4-1.1c1.5-1.6,2.9-3.1,4.4-4.8c0.6-0.6,1-1.4,1.5-2.1
				c0.2-0.3,0.6-0.5,1-0.4c0.7,0.2,1,0.7,0.7,1.3c-0.4,0.8-0.8,1.6-1.3,2.3c-1.2,1.6-2.5,3.1-3.8,4.6c-0.5,0.6-1,1.1-1.5,1.7
				c-0.4,0.4-0.8,0.8-1.3,1.1c-1.4,1-2.9,0.9-4.2-0.3c-0.5-0.5-1-1.1-1.4-1.7c-1.1-1.8-1.7-3.9-2.1-6c-0.5-2.6-0.7-5.3-0.8-8
				c-0.1-3.5-0.1-7-0.2-10.4c0-0.8-0.1-0.9-0.9-0.9c-1.8,0-3.6,0.2-5.4,0.2c-0.9,0-1.9-0.1-2.8-0.2c-0.2,0-0.3-0.1-0.5-0.1
				c-0.5-0.2-0.8-0.6-0.8-1.2c0-0.5,0.4-0.8,0.9-0.9c0.9-0.1,1.8-0.2,2.7-0.2c1.8-0.1,3.6-0.1,5.4-0.1c1.3,0,1.3,0,1.3-1.3
				c0-3.1,0-6.3,0.2-9.4c0.1-1.7,0.3-3.4,0.6-5.1c0.1-0.6,0.4-1.3,0.7-1.8c0.9-1.4,2.8-1.3,3.7,0c0.5,0.7,0.7,1.6,0.9,2.5
				c0.5,3,0.7,5.9,0.8,8.9c0.1,1.8,0.1,3.6,0.2,5.5c0,0.7,0.1,0.8,0.8,0.8c1.1,0,2.2,0,3.3,0c0.7,0,1.1,0.2,1.2,0.8
				c0.1,0.6-0.2,1.2-0.9,1.3c-1.1,0.1-2.1,0.2-3.2,0.2C169,166.5,168.7,166.6,168.4,166.6z"/>
			<path d="M120.5,171.5c-0.2,2.9-0.3,5.8-0.5,8.7c-0.2,3-0.8,6-1.3,8.9c-0.1,0.4-0.1,0.9-0.1,1.3c0,0.5,0.1,0.7,0.6,0.7
				c0.9,0,1.7,0,2.6,0c1.3-0.1,2.6-0.2,4-0.3c2.2-0.2,4.4-0.3,6.5-0.5c0.5,0,0.9,0.1,1.2,0.5c0.3,0.4,0.2,0.9-0.1,1.2
				c-0.3,0.3-0.7,0.6-1.1,0.7c-1,0.2-2.1,0.4-3.1,0.5c-2.7,0.4-5.5,0.6-8.2,0.8c-0.5,0-1,0-1.6,0c-2.2,0-3.6-1.2-4.3-3.2
				c-0.3-1-0.6-2.1-0.8-3.1c-0.6-3.2-0.8-6.4-0.9-9.6c-0.1-3.7-0.2-7.4-0.3-11.1c-0.1-4.2-0.3-8.3-0.3-12.5c0-2,0-3.9,0.5-5.9
				c0.1-0.5,0.3-0.9,0.5-1.3c0.8-1.4,2.5-1.7,3.7-0.6c0.4,0.4,0.8,0.9,1,1.5c0.8,1.8,1,3.7,1.1,5.7c0.3,4.9,0.6,9.7,0.8,14.6
				c0.1,1,0,2,0,3.1C120.4,171.5,120.4,171.5,120.5,171.5z"/>
		</g>
		<g>
			<path d="M174.2,266.8c-0.6,0-1.2,0-1.7,0c-2.4,0.1-4.7,0.3-7.1,0.4c-0.7,0-1.3,0-2-0.2c-0.7-0.2-1.1-0.7-1.1-1.3
				c0-0.6,0.5-1.2,1.2-1.3c1.2-0.2,2.5-0.3,3.7-0.3c2-0.1,4-0.1,6-0.1c0.9,0,0.9,0,0.9-1c0.1-3.2,0.1-6.5,0.6-9.7
				c0.2-1,0.4-2,0.9-2.9c0.8-1.4,3.1-1.9,4.3,0.3c0.3,0.5,0.5,1.2,0.6,1.8c0.2,1.6,0.4,3.2,0.5,4.8c0.1,1.8,0.1,3.6,0.2,5.4
				c0,1.1,0.1,1.1,1.1,1.1c1.7,0,3.3,0.1,5,0.1c0.5,0,0.9,0.2,1,0.7c0.2,0.5,0.1,1-0.3,1.3c-0.3,0.2-0.7,0.4-1,0.4
				c-1.2,0.1-2.5,0.1-3.7,0.2c-0.4,0-0.7,0-1.1,0c-0.7,0-0.8,0.1-0.7,0.8c0.1,1.3,0.2,2.6,0.3,4c0.2,2.3,0.2,4.5,0.5,6.8
				c0.3,2.9,0.7,5.8,1.1,8.6c0.3,1.8,0.7,3.6,1.1,5.4c0.2,0.8,0.4,1.5,1,2.1c0.5-0.2,0.8-0.6,1-1c0.7-1.3,1.5-2.5,2-3.9
				c1.6-4.1,3.1-8.3,4.6-12.5c1.8-5,3.6-10,5.8-14.9c1.3-2.9,2.6-5.9,3.9-8.8c0.2-0.4,0.4-0.7,0.6-1.1c1-1.9,3.1-1.9,4.5-0.7
				c0.6,0.6,1.1,1.2,1.4,2c0.8,1.9,1.5,3.9,1.9,5.9c0.7,3,1.3,6,1.8,9c0.6,3.8,1,7.6,1.4,11.3c0.3,2.4,0.4,4.8,0.6,7.3
				c0.1,2,0.2,4,0.4,6c0.1,1.2,0.3,2.5,0.4,3.7c0,0.4,0.1,0.8,0,1.2c-0.1,0.9-0.7,1.5-1.6,1.7c-0.8,0.2-1.6-0.2-2-1
				c-0.2-0.3-0.3-0.7-0.4-1.1c-0.7-2.3-1.4-4.5-2.1-6.8c-0.2-0.8-0.2-0.8-1-0.8c-3-0.1-5.9-0.1-8.9-0.3c-2.5-0.1-5-0.4-7.4-0.7
				c-0.8-0.1-0.8-0.1-1.1,0.6c-0.7,1.5-1.4,2.9-2.2,4.4c-0.4,0.6-0.8,1.2-1.3,1.8c-1.6,1.8-3.6,1.8-5.4,0.2
				c-1.5-1.4-2.6-3.1-3.5-4.9c-1.1-2.3-1.8-4.6-2.4-7c-0.8-3.3-1.4-6.5-1.6-9.9c-0.2-2.1-0.3-4.3-0.5-6.4
				C174.3,267.3,174.3,267.1,174.2,266.8z M208.7,286.9c0-0.3-0.1-0.6-0.1-0.9c-0.2-0.9-0.5-1.7-0.6-2.6c-0.5-3-1-6.1-1.5-9.2
				c-0.5-3.1-0.9-6.2-1.4-9.2c-0.4-2.4-0.7-4.7-1.1-7.1c0-0.3-0.1-0.5-0.2-1c-0.2,0.3-0.3,0.4-0.3,0.5c-0.9,1.8-1.8,3.6-2.6,5.5
				c-1.2,3-2.2,6.1-3.3,9.1c-1.4,3.8-2.8,7.6-4.1,11.5c-0.3,0.8-0.6,1.7-0.9,2.6C193.4,286.4,207.6,287.1,208.7,286.9z"/>
			<path d="M229.4,283.1c0,0.6,0,1.2,0,1.8c0,1.9-0.1,3.8-0.2,5.7c0,1-0.2,2-0.3,3c-0.1,0.7-0.1,1.4-0.2,2.1
				c-0.1,0.5-0.1,1.1-0.2,1.6c-0.2,0.8-0.8,1.2-1.5,1.2c-0.7,0-1.4-0.4-1.6-1.1c-0.1-0.3-0.2-0.7-0.2-1c-0.2-1.1-0.4-2.2-0.6-3.3
				c-0.2-1-0.3-2.1-0.4-3.1c-0.3-2.8-0.6-5.6-0.8-8.3c-0.2-3-0.4-6-0.6-9c-0.2-4.2-0.4-8.3-0.5-12.5c-0.1-1.7-0.1-3.4-0.1-5.1
				c0-0.9,0.1-1.8,0.3-2.6c0.1-0.4,0.2-0.9,0.5-1.2c0.5-0.8,1.2-1.3,2.2-1.2c0.9,0.1,1.6,0.7,1.9,1.5c0.3,0.7,0.5,1.4,0.6,2.1
				c0.5,2.3,0.8,4.6,0.9,6.9c0.2,3.7,0.4,7.4,0.6,11.2c0.1,1.4,0.1,2.9,0.2,4.3c0,0.2,0.1,0.4,0.1,0.7c0.3-0.3,0.5-0.5,0.6-0.7
				c1.7-2.5,3.4-5.1,5-7.6c1.6-2.6,3.3-5.2,5.1-7.8c2-2.8,4.1-5.6,6.1-8.4c0.2-0.3,0.4-0.5,0.7-0.7c0.4-0.3,0.9-0.4,1.3-0.1
				c0.5,0.3,0.7,0.6,0.6,1.2c-0.1,0.5-0.2,1-0.4,1.5c-0.7,1.8-1.9,3.4-3,5.1c-1.7,2.7-3.5,5.3-5.2,8c-1.6,2.4-3,4.9-4.7,7.2
				c-1.4,2.1-3.1,4-4.7,5.9c-0.1,0.1-0.2,0.2-0.3,0.4c0.2,0.2,0.4,0.3,0.5,0.5c1.5,1.2,3.1,2.3,4.6,3.5c2.1,1.7,4.1,3.4,6.1,5.2
				c2.2,1.9,4.4,3.8,6.5,5.7c0.1,0.1,0.3,0.3,0.4,0.4c0.5,0.5,0.5,1.1,0.1,1.6c-0.4,0.5-0.9,0.6-1.5,0.2c-0.8-0.5-1.7-1.1-2.4-1.7
				c-2.3-2-4.6-4-6.9-6c-2.4-2.1-4.9-4.2-7.5-6.2c-0.3-0.2-0.6-0.5-1-0.8C229.6,283.1,229.6,283.1,229.4,283.1z"/>
			<path d="M260.5,254.4c0.1,0.4,0.2,0.8,0.2,1.2c0.2,1.8,0.4,3.6,0.5,5.4c0.2,4,0,7.9-0.3,11.8c-0.2,2.8-0.4,5.6-0.5,8.4
				c-0.1,0.9,0,1.8,0,2.8c0.9,0,1.8,0.1,2.7,0.1c1,0,2,0,3.1,0c0.2,0,0.4,0,0.6,0c0.6,0.1,0.9,0.5,0.9,1c0,0.5-0.4,0.9-0.9,1
				c-0.1,0-0.2,0-0.2,0c-1.9,0.1-3.8,0.3-5.7,0.4c-0.6,0-0.7,0.1-0.7,0.7c-0.1,2.2-0.3,4.4-0.4,6.6c0,0.2,0,0.5,0,0.8
				c0.4,0,0.7,0.1,0.9,0.1c3.2-0.1,6.4-0.3,9.6-0.4c0.4,0,0.8,0,1.1,0.1c0.6,0.2,0.9,0.8,0.9,1.3c-0.1,0.5-0.5,0.9-1.1,0.9
				c-1.3,0.1-2.6,0.3-4,0.4c-2,0.2-4,0.3-5.9,0.5c-0.5,0-1,0-1.5,0c-2-0.1-3.2-1.2-3.6-3.2c-0.2-0.9-0.3-1.7-0.3-2.6
				c-0.3-3-0.4-6-0.4-9c0-2.5,0-5,0-7.5c0.1-5.5,0.3-11,0.5-16.5c0.1-1.5,0.2-3.1,0.3-4.6c0.1-1.3,1.3-2.7,3-2.8
				c3.1-0.1,6.2-0.2,9.3-0.4c0.2,0,0.4,0,0.6,0c0.6,0.1,1,0.4,1,0.9c0,0.6-0.3,1.1-0.9,1.2c-1,0.2-1.9,0.2-2.9,0.4
				c-1.8,0.2-3.5,0.5-5.3,0.7C260.9,254.2,260.7,254.3,260.5,254.4z"/>
		</g>
		<g>
			<path d="M234.5,332.2c1.1-0.9,2.2-1.7,3.2-2.5c0.4-0.3,0.3-0.6,0.3-1c-0.1-1.5-0.2-3-0.2-4.6c-0.1-3.4,0.1-6.9,0.9-10.2
				c0.1-0.3,0.2-0.6,0.2-0.9c0.1-0.3,0.1-0.5,0.2-0.8c-0.1-0.1-0.2-0.2-0.3-0.2c-3.8-0.6-7.3-2-10.8-3.7c-1.9-0.9-3.8-1.9-5.7-2.6
				c-3.6-1.4-7.3-2.1-11.1-1.6c-1.8,0.3-3.5,0.8-5.3,1.4c-2.5,0.9-4.8,2-6.8,3.7c-0.4,0.4-1,0.4-1.4,0c-0.4-0.4-0.5-1,0-1.4
				c0.7-0.7,1.5-1.4,2.3-1.9c2.9-1.9,6.1-2.9,9.4-3.7c4.2-1,8.3-0.5,12.4,0.8c2.5,0.8,4.9,2,7.3,3.1c2.5,1.2,5.1,2.3,7.8,3
				c1,0.2,2,0.4,3,0.7c0.2-0.3,0.3-0.6,0.5-0.9c0.6-1.3,1.3-2.5,2.3-3.5c1.5-1.6,3.3-2.3,5.5-2.1c1.7,0.2,3.7,1.7,3.8,3.7
				c0.1,1.4-0.6,2.5-1.6,3.4c-1.2,1-2.7,1.4-4.2,1.7c-0.7,0.1-1.5,0.2-2.3,0.3c-0.1,0.4-0.2,0.8-0.2,1.2c-0.4,2.6-0.4,5.3-0.3,7.9
				c0.1,3.4,0.5,6.8,1,10.2c0,0.2,0.1,0.4,0.2,0.8c0.2-0.5,0.4-0.8,0.6-1.1c2.2-4.6,5.5-8.1,9.8-10.8c1-0.6,2.1-1.2,3.2-1.5
				c3.3-1,6.2,0.4,7.7,3.4c0.7,1.3,1,2.7,1.3,4.2c0.4,2.5,0.5,5.1,0.6,7.6c0.1,1.8,0.1,3.6,0.7,5.4c0.1,0.5,0.4,1,0.6,1.5
				c0.6,0,1-0.3,1.2-0.7c0.7-1,1.6-2,2.1-3.2c1.3-2.8,2.6-5.5,3.8-8.4c1.8-4.3,3.5-8.7,5.3-13.1c0.5-1.2,0.6-3.1,0.2-4.3
				c-0.2,0-0.5,0-0.7,0c-4.1,0.4-8.2,0.5-12.3,0.5c-0.5,0-1.1-0.1-1.6-0.2c-0.5-0.1-0.7-0.5-0.7-1c0-0.5,0.2-0.9,0.7-1
				c0.9-0.2,1.8-0.3,2.8-0.4c3.8-0.4,7.5-0.7,11.3-1.1c0.6-0.1,0.7-0.2,0.8-0.8c0.1-1.3,0.1-2.7,0.2-4c0.2-1.9,0.4-3.8,0.6-5.7
				c0.1-0.4,0.2-0.8,0.4-1.2c0.7-1.4,2.5-1.6,3.4-0.2c0.4,0.7,0.7,1.4,0.9,2.2c0.3,1.2,0.4,2.3,0.5,3.5c0.1,1.5,0.2,2.9,0.3,4.4
				c0.1,0.8,0.2,0.9,1,0.9c2.8-0.2,5.7-0.4,8.5-0.5c0.4,0,0.7,0,1.1,0.1c0.6,0.2,1.1,0.9,1,1.5c-0.1,0.6-0.6,1-1.2,1.1
				c-3.1,0.3-6.2,0.7-9.3,1.1c-0.7,0.1-0.7,0.1-0.7,0.8c0.1,2.2,0.2,4.3,0.3,6.5c0.1,1.9,0.2,3.8,0.3,5.7c0.3,4.9,0.5,9.8,1.1,14.7
				c0.2,1.4,0.5,2.8,0.8,4.1c0.3,1.1,0.7,2.2,1.4,3.2c0.5,0.7,0.8,0.8,1.5,0.2c0.5-0.4,1-0.8,1.4-1.4c1.2-1.8,2.5-3.5,3.6-5.4
				c2.1-3.6,4-7.2,6-10.8c0.8-1.5,1.5-3,2.2-4.5c0.1-0.2,0.2-0.5,0.4-0.7c0.3-0.4,0.7-0.6,1.2-0.4c0.4,0.1,0.7,0.5,0.6,1
				c0,0.3-0.1,0.6-0.2,0.9c-1,2.2-1.9,4.4-2.9,6.5c-2.1,4.2-4.4,8.4-6.6,12.6c-0.9,1.6-1.9,3.2-3.4,4.4c-0.8,0.7-1.7,1.3-2.7,1.5
				c-1.3,0.3-2.5,0.1-3.6-0.6c-1.6-1.1-2.8-2.6-3.7-4.3c-1.5-2.9-2.4-5.9-2.9-9.1c-0.4-2.7-0.7-5.5-1-8.2c-0.2-1.7-0.2-3.4-0.3-5.1
				c0-0.3,0-0.5-0.1-0.9c-0.5,0.1-0.5,0.5-0.6,0.7c-0.7,1.7-1.3,3.4-2,5c-1.5,3.7-3,7.5-4.6,11.2c-0.7,1.6-1.5,3.1-2.7,4.5
				c-0.4,0.4-0.8,0.8-1.3,1.2c-1.9,1.3-4.1,1-5.6-0.7c-0.9-1-1.5-2.1-1.9-3.3c-0.7-1.9-1.1-3.8-1.3-5.8c-0.2-2.1-0.3-4.3-0.4-6.4
				c-0.1-1.3-0.2-2.5-0.6-3.7c-0.5-1.4-1.4-1.9-2.9-1.6c-1.1,0.2-2.1,0.7-3,1.3c-5.1,3.5-8,8.4-9.2,14.4c-0.1,0.7-0.2,1.5-0.2,2.2
				c-0.1,1-0.5,1.8-1.5,2.1c-0.9,0.3-1.7,0.1-2.4-0.5c-0.6-0.6-1.1-1.3-1.3-2.1c-0.8-2.3-1.6-4.6-1.9-7c0-0.3-0.1-0.6-0.2-1
				c-1.2,0.7-2.1,1.7-3.1,2.5c0.2,0.8,0.4,1.6,0.6,2.4c0.9,3.5,1.5,7,1.6,10.6c0.1,3.4-0.2,6.7-1.1,9.9c-1,3.3-2.7,6.2-5.7,8.1
				c-1.4,0.9-2.8,1.6-4.4,1.7c-3.7,0.4-6.5-1-8.6-4c-1.8-2.8-2-5.8-0.9-8.9c0.8-2.5,2.1-4.9,3.5-7.1c2.1-3.4,4.8-6.2,7.7-8.9
				c0.2-0.2,0.4-0.4,0.7-0.7c-0.7-2.9-1.5-5.8-2.7-8.7c-0.3,0.2-0.6,0.4-0.8,0.6c-1.3,1.3-2.6,2.7-3.9,4.1c-1.5,1.6-3,3.3-4.5,4.8
				c-0.9,0.9-2,1.6-3.3,1.9c-2,0.5-3.9,0-5.6-1.2c-3.1-2.2-5-5.2-5.8-8.9c-0.2-0.9-0.4-1.8-0.6-2.9c-0.2,0.3-0.4,0.5-0.5,0.8
				c-1.6,3.1-3.2,6.3-4.7,9.4c-0.9,1.9-1.9,3.7-3.2,5.3c-0.7,1-1.5,1.8-2.6,2.4c-1.1,0.6-2.3,0.7-3.4,0.2c-0.8-0.4-1.5-0.8-2.2-1.4
				c-1.7-1.5-3-3.2-4-5.2c-1.4-2.7-2.2-5.7-2.9-8.6c-0.1-0.2-0.1-0.5-0.2-0.7c0,0-0.1-0.1-0.2-0.2c-0.1,0.3-0.3,0.5-0.4,0.8
				c-1.4,4-2.8,7.9-4.2,11.9c-0.3,0.9-0.8,1.9-1.4,2.7c-1.1,1.6-2.9,1.8-4.3,0.4c-0.6-0.6-1.2-1.4-1.7-2.1c-1-1.7-1.8-3.6-2.4-5.5
				c-0.7-2.3-1.4-4.5-2.1-6.8c-0.4-1.6-0.8-3.2-1-4.8c-0.6-3.5-1.1-7-1.6-10.5c-0.7-4.9-1.1-9.9-1.4-14.8c-0.2-3.1-0.4-6.3,0-9.4
				c0.1-0.8,0.3-1.5,0.5-2.2c0.3-0.8,0.9-1.4,1.9-1.4c1,0,1.7,0.5,2.1,1.3c0.3,0.6,0.5,1.2,0.7,1.9c0.8,3.2,1.3,6.5,1.6,9.7
				c0.3,2.6,0.6,5.3,0.9,7.9c0.2,2,0.4,4,0.6,6c0.3,2.6,0.6,5.2,0.9,7.8c0.5,4.6,1,9.1,1.7,13.7c0.3,2.1,0.8,4.2,1.2,6.4
				c0.1,0.3,0.2,0.6,0.4,1.1c0.2-0.4,0.4-0.7,0.5-0.9c1-2.5,2.1-4.9,3.1-7.4c1.3-3.2,2.4-6.5,3.6-9.7c0.2-0.5,0.2-1.1,0.2-1.6
				c-0.3-2.6-0.6-5.3-0.6-7.9c0-2.1,0.2-4.1,0.8-6.2c0.2-0.7,0.5-1.4,1.2-1.8c1-0.7,2.1-0.5,2.9,0.4c0.6,0.7,0.8,1.6,0.9,2.5
				c0.2,1.1,0.3,2.1,0.4,3.2c0.5,3.4,1,6.8,1.4,10.3c0.3,2.8,0.9,5.5,1.4,8.2c0.6,3,1.4,5.9,2.5,8.8c0.2,0.4,0.4,0.9,0.6,1.2
				c0.4,0.6,0.7,0.6,1.2,0.1c0.6-0.6,1.2-1.3,1.7-2c1.7-2.4,3-5,4.3-7.5c1.7-3.2,3.3-6.3,5-9.4c0.6-1.2,1-2.4,1.3-3.7
				c0.7-3.4,2.3-6.5,4.6-9.1c1.1-1.2,2.4-2.2,3.9-2.9c1.8-0.8,3.7-0.6,5.5,0.2c3.7,1.6,5.6,4.6,6.2,8.5c0.1,0.8-0.1,1.6-0.1,2.4
				c0,0.1-0.1,0.3-0.1,0.4c-0.2,0.7-0.9,1.2-1.5,1.1c-0.6-0.1-1.1-0.6-1.2-1.4c-0.1-1-0.3-2-0.8-2.9c-0.7-1.3-1.7-2.3-3.1-2.9
				c-1.5-0.7-2.4-0.5-3.4,0.8c-1.1,1.3-1.8,2.7-2.4,4.2c-1,2.7-1.5,5.4-1.6,8.3c0,2.9,0.2,5.9,1.4,8.6c0.3,0.8,0.8,1.5,1.3,2.1
				c0.8,0.8,1.7,1.1,2.7,0.7c0.7-0.3,1.4-0.7,2.1-1.2c1.3-0.9,2.4-2.2,3.4-3.4c1.8-2.2,3.5-4.5,5.3-6.7c0.2-0.3,0.5-0.6,0.8-0.9
				c1.3-1.3,3.1-1.5,4.6-0.6c1.4,0.8,2.4,2,3.2,3.4c0.6,1,1.1,2.1,1.6,3.2C234.3,331.6,234.4,331.8,234.5,332.2z M229.1,339.8
				c-0.3,0.3-0.5,0.4-0.7,0.6c-1.2,1.3-2.4,2.5-3.6,3.8c-2.3,2.7-4.2,5.6-5.3,8.9c-0.5,1.5-1,3.1-0.8,4.7c0.2,2.1,1.1,3.8,3,4.9
				c1,0.5,2,0.6,3,0.2c1.3-0.5,2.4-1.3,3.2-2.5c1-1.4,1.4-3,1.8-4.6c0.8-4,0.7-8.1,0.1-12.1C229.6,342.5,229.4,341.3,229.1,339.8z
				 M244.6,310c1.6-0.1,3-0.3,4.3-1c0.2-0.1,0.5-0.3,0.7-0.5c0.7-0.7,0.6-1.4,0-2c-0.9-0.8-2.2-0.8-3.2,0.2
				C245.4,307.6,245,308.7,244.6,310z"/>
			<path d="M139.9,285.7c0,0.6,0,1.1,0,1.5c0.4,3,0.8,5.9,1.1,8.9c0.3,2.1,0.5,4.1,0.7,6.2c0.4,3.4,0.7,6.8,1,10.2
				c0.4,4.4,0.6,8.8,0.9,13.1c0.1,1.8,0.3,3.6,0.4,5.5c0.1,0.8,0.1,0.9,0.9,0.8c1.9-0.2,3.8-0.4,5.8-0.7c0.7-0.1,1.1,0,1.4,0.6
				c0.3,0.5,0.2,1-0.1,1.5c-0.3,0.6-0.9,0.8-1.5,0.9c-1.3,0.2-2.6,0.4-3.8,0.6c-0.6,0.1-1.2,0.2-1.8,0.3c-0.6,0.1-0.6,0.2-0.6,0.8
				c0,2.4,0.1,4.9,0.1,7.3c0,0.7,0.1,1.4,0,2.2c0,0.4-0.1,0.8-0.4,1.2c-0.8,1.2-2.4,1.1-3-0.2c-0.3-0.8-0.5-1.7-0.7-2.5
				c-0.4-1.9-0.7-3.9-1.2-5.7c-0.7-2.7-1.1-5.5-1.5-8.3c-0.6-4.5-1.1-9.1-1.6-13.7c-0.2-2-0.4-4.1-0.6-6.1c-0.3-3.3-0.7-6.6-1-9.9
				c-0.3-3.3-0.4-6.6-0.6-9.8c-0.1-1.4,0.1-2.8,0.4-4.2c0.5-2.3,1.8-3.8,4.2-4.3c1.8-0.4,3.5-0.6,5.3-1c2.6-0.5,5.2-1.1,7.8-1.6
				c0.9-0.2,1.9-0.2,2.8-0.2c1.1,0.1,1.7,0.7,1.9,1.5c0.1,0.8-0.4,1.6-1.5,2c-0.6,0.2-1.2,0.4-1.8,0.5c-3.4,0.7-6.8,1.3-10.2,2
				C141.9,285.2,140.9,285.5,139.9,285.7z"/>
			<path d="M181.5,301.3c0,0.2,0,0.4,0,0.5c-0.1,1.6-1.1,2.5-2.6,2.5c-1.3,0-2.4-1.2-2.4-2.6c0-2.2,2-3.3,3.6-2.7
				C181,299.3,181.5,300.1,181.5,301.3z"/>
		</g>
	</g>
	<path class="st4" d="M279.4,133c21,0,20-37.2,13.9-48.9c-2.3-4.5-5-8.5-8.9-11.3c-2.8-2.1-5.8-3.3-9-3.6c-4-0.4-7.9,0.5-11.8,2
		c-4.8,1.8-9.3,4.5-13.3,8.1c-4.7,4.2-8.7,9-11.7,15.1c-0.6,1.2-1.1,2.4-1.7,3.5c-1-2.7-2-5.4-3-8.1c-2-5.2-4.4-10.2-7.5-14.6
		c-3.6-4.9-7.8-8.6-13.2-10c-3.7-1-7.4-0.7-11,0.9c-2.8,1.2-5.2,3.1-7.6,5.1c-8.4,7-15,15.9-19.2,27c-0.1,0.3-0.3,0.6-0.5,0.9
		c-1.9-2.4-3.7-4.6-5.5-6.9c-3.4-4.4-7.4-7.8-12.3-9.6c-3.5-1.3-7.1-1.4-10.6-0.2c-4.6,1.5-8.4,4.5-11.7,8.5
		c-5.2,6.4-8.7,13.9-8.7,22.9c0,16.9,10.9,19.6,17.6,19.6C143.7,133.5,245.3,136.2,279.4,133z"/>
	<g>
		<g>
			<path class="st0" d="M159.3,267c0.2-0.2,0.3-0.4,0.4-0.6c0.1-0.2,0.1-0.4,0-0.6c-0.2-0.3-0.5-0.5-0.9-0.6
				c-0.9-0.2-1.7-0.4-2.4-0.6c-1.7-0.1-3.2-0.2-4.7,0.1c-1,0.2-1.9,0.6-2.7,1.3c-0.4,0.3-0.6,0.7-0.8,1.1c-0.3,0.9,0.1,1.8,1,2.3
				c0.8,0.4,1.7,0.6,2.7,0.5c2-0.1,3.9-0.7,5.6-1.7C158.2,267.9,158.7,267.5,159.3,267z"/>
			<path class="st0" d="M153.7,259.3c0.9,0.9,1.9,1.6,2.8,2.4c0.7,0.6,1.5,1.2,2.4,1.6c0.2,0.1,0.3,0.2,0.5,0.2
				c0.3,0.1,0.4,0,0.6-0.2c0.1-0.3,0.2-0.6,0.1-0.9c-0.1-0.9-0.4-1.7-0.8-2.5c-0.7-1.4-1.4-2.7-2.3-3.9c-0.7-0.9-1.5-1.7-2.5-2.3
				c-0.3-0.2-0.6-0.3-0.9-0.3c-0.6-0.1-1.2,0.2-1.5,0.8c-0.1,0.3-0.2,0.6-0.3,0.7c0,0.6,0,1.1,0.2,1.6
				C152.3,257.6,152.9,258.5,153.7,259.3z"/>
			<path class="st0" d="M159.2,271.3c0.1-0.5,0-1.1-0.4-1.5c-0.2-0.3-0.3-0.3-0.7-0.2c-0.4,0.2-0.8,0.5-1.1,0.8
				c-0.9,0.8-1.5,1.8-2,2.9c-0.2,0.4-0.3,0.9-0.4,1.2c-0.1,0.8-0.1,1.4,0.2,2c0.1,0.1,0.1,0.2,0.2,0.3c0.3,0.5,0.8,0.7,1.4,0.5
				c0.5-0.2,0.9-0.5,1.2-0.9c0.6-0.8,0.9-1.6,1.1-2.5C159,273,159.1,272.1,159.2,271.3z"/>
		</g>
		<g>
			<path class="st0" d="M273.6,276.3c-0.2-0.1-0.4-0.3-0.6-0.4c-0.2-0.1-0.2-0.3-0.1-0.6c0.1-0.4,0.4-0.6,0.7-0.8
				c0.8-0.4,1.5-0.9,2.1-1.2c1.6-0.6,3-1.1,4.5-1.2c1-0.1,2,0.1,3,0.5c0.4,0.2,0.8,0.5,1.1,0.9c0.5,0.8,0.4,1.8-0.3,2.5
				c-0.7,0.7-1.5,1-2.4,1.2c-2,0.4-3.9,0.4-5.9-0.1C275,276.8,274.3,276.6,273.6,276.3z"/>
			<path class="st0" d="M276.9,267.3c-0.6,1.1-1.4,2.1-2.1,3.1c-0.5,0.8-1.1,1.6-1.8,2.2c-0.1,0.1-0.3,0.3-0.4,0.4
				c-0.2,0.2-0.4,0.1-0.6-0.1c-0.2-0.2-0.4-0.5-0.4-0.9c-0.1-0.9-0.1-1.7,0.1-2.6c0.3-1.5,0.6-3,1.2-4.4c0.4-1.1,1-2.1,1.8-2.9
				c0.2-0.2,0.5-0.4,0.8-0.6c0.6-0.3,1.2-0.2,1.7,0.3c0.2,0.2,0.4,0.5,0.5,0.6c0.2,0.6,0.3,1.1,0.3,1.6
				C277.8,265.3,277.4,266.3,276.9,267.3z"/>
			<path class="st0" d="M274.9,280.4c-0.2-0.5-0.3-1-0.1-1.6c0.1-0.3,0.2-0.4,0.6-0.3c0.5,0,0.9,0.2,1.3,0.5c1,0.6,2,1.3,2.7,2.2
				c0.3,0.4,0.5,0.8,0.7,1.1c0.3,0.7,0.5,1.3,0.4,2c0,0.1,0,0.3-0.1,0.4c-0.2,0.6-0.6,0.9-1.2,0.9c-0.5,0-1-0.3-1.4-0.6
				c-0.8-0.6-1.3-1.3-1.8-2.1C275.6,282,275.2,281.2,274.9,280.4z"/>
		</g>
	</g>
</g>
</svg>
